<?xml version="1.0" encoding="UTF-8"?>
<svg id="_图层_1" data-name="图层 1" xmlns="http://www.w3.org/2000/svg" viewBox="0 0 524.63 389.43">
  <defs>
    <style>
      .cls-1 {
        fill: none;
        stroke: #666;
        stroke-width: 19px;
      }

      .cls-1, .cls-2 {
        stroke-linecap: round;
        stroke-miterlimit: 10;
      }

      .cls-2 {
        fill: #1277d6;
        stroke: #1d589e;
        stroke-width: 16px;
      }
    </style>
  </defs>
  <path class="cls-1" d="M464.78,194.27c0,53.57-33.37,100-74.54,100h-254.68c-36.21-2.02-78.91,64.53-119.88,81.82"/>
  <path class="cls-1" d="M9.5,379.93c52.42-27.78,53.33-145.5,53.52-176.24v-80.89c0-22.98,5.22-45.74,15.78-66.15,11.37-21.99,24.36-31.83,45.72-40.04,12.43-4.78,25.66-7.09,38.98-7.09h203.16c49.79,0,93.29,34.68,103.25,83.46.2.96.39,1.94.57,2.92"/>
  <path class="cls-2" d="M516.63,379.93c-36.69,3.81-77.25-10.18-185.32-26.33-81.9-12.24-150.48-49.23-150.48-109.97s68.47-100.78,151.57-100.78c113.91,0,150.01,40.04,149.38,100.78-.31,29.96-38.28,92.39,34.85,136.3"/>
</svg>